<svg width="20" height="20" viewBox="0 0 20 20" fill="none" xmlns="http://www.w3.org/2000/svg">
<path d="M2.07812 7.91797H11.2448" stroke="#272B35" stroke-width="1.25" stroke-linecap="round" stroke-linejoin="round"/>
<path d="M14.5781 7.91797H17.9115" stroke="#272B35" stroke-width="1.25" stroke-linecap="round" stroke-linejoin="round"/>
<path d="M7.92188 17.918V7.91797" stroke="#272B35" stroke-width="1.25"/>
<path d="M7.92188 5.41536V2.08203" stroke="#272B35" stroke-width="1.25" stroke-linecap="round" stroke-linejoin="round"/>
<path d="M14.1615 14.1654C12.4948 14.1654 10.8281 15.5173 10.8281 17.9154H8.74479C5.60209 17.9154 4.03075 17.9154 3.05443 16.939C2.07813 15.9628 2.07812 14.3914 2.07812 11.2487V8.7487C2.07812 5.606 2.07813 4.03466 3.05443 3.05834C4.03075 2.08203 5.60209 2.08203 8.74479 2.08203H11.2448C14.3875 2.08203 15.9589 2.08203 16.9351 3.05834C17.9115 4.03466 17.9115 5.606 17.9115 8.7487V14.868C17.9115 16.551 16.5471 17.9154 14.8641 17.9154" stroke="#272B35" stroke-width="1.25" stroke-linecap="round" stroke-linejoin="round"/>
</svg>
