<svg width="20" height="20" viewBox="0 0 20 20" fill="none" xmlns="http://www.w3.org/2000/svg">
<path d="M1.67188 10.4687C1.67188 7.89076 1.67188 6.60176 2.52615 5.80088C3.38042 5 4.75535 5 7.50521 5H12.5052C15.255 5 16.63 5 17.4843 5.80088C18.3385 6.60176 18.3385 7.89076 18.3385 10.4687V12.0312C18.3385 14.6092 18.3385 15.8983 17.4843 16.6991C16.63 17.5 15.255 17.5 12.5052 17.5H7.50521C4.75535 17.5 3.38042 17.5 2.52615 16.6991C1.67188 15.8983 1.67188 14.6092 1.67188 12.0312V10.4687Z" stroke="#272B35" stroke-width="1.25" stroke-linecap="round" stroke-linejoin="round"/>
<path d="M7.5 11.25H12.5M10 8.75V13.75" stroke="#272B35" stroke-width="1.25" stroke-linecap="round" stroke-linejoin="round"/>
<path d="M14.1615 5C14.1615 2.93167 13.7298 2.5 11.6615 2.5H8.32812C6.25979 2.5 5.82812 2.93167 5.82812 5" stroke="#272B35" stroke-width="1.25" stroke-linecap="round" stroke-linejoin="round"/>
</svg>
