<svg width="20" height="20" viewBox="0 0 20 20" fill="none" xmlns="http://www.w3.org/2000/svg">
<path d="M8.71883 10.8311L7.55715 12.3414C7.43266 12.5032 7.52188 12.7361 7.72489 12.7792L8.94175 13.0375C9.15825 13.0834 9.24075 13.3412 9.08942 13.4986L7.64811 14.9977" stroke="#272B35" stroke-width="1.25" stroke-linecap="round" stroke-linejoin="round"/>
<path d="M3.32812 8.33203H13.3281" stroke="#272B35" stroke-width="1.25" stroke-linecap="round" stroke-linejoin="round"/>
<path d="M3.32812 17.5V7.5C3.32812 5.14297 3.32813 3.96447 4.06036 3.23223C4.79259 2.5 5.9711 2.5 8.32812 2.5C10.6851 2.5 11.8636 2.5 12.5959 3.23223C13.3281 3.96447 13.3281 5.14297 13.3281 7.5V17.5H3.32812Z" stroke="#272B35" stroke-width="1.25"/>
<path d="M1.67188 17.5H15.0052" stroke="#272B35" stroke-width="1.25" stroke-linecap="round" stroke-linejoin="round"/>
<path d="M13.3281 11.6667H14.717C14.9754 11.6667 15.1045 11.6667 15.2105 11.6951C15.498 11.7721 15.7227 11.9968 15.7997 12.2843C15.8281 12.3903 15.8281 12.5194 15.8281 12.7777V13.75C15.8281 14.4403 16.3878 15 17.0781 15C17.7685 15 18.3281 14.4403 18.3281 13.75V8.50925C18.3281 8.00832 18.3281 7.75784 18.2566 7.52165C18.1851 7.28546 18.0461 7.07706 17.7683 6.66025L17.1237 5.69337C16.835 5.26019 16.3487 5 15.8281 5" stroke="#272B35" stroke-width="1.25" stroke-linecap="round" stroke-linejoin="round"/>
</svg>
