<svg width="20" height="20" viewBox="0 0 20 20" fill="none" xmlns="http://www.w3.org/2000/svg">
<path d="M9.45104 13.7477C9.66529 13.5677 9.91054 13.4265 10.1712 13.3397C11.8577 12.8105 10.9218 11.5454 12.4515 11.0464C13.632 10.6613 13.2699 10.0117 13.7296 9.46325M8.38145 11.6055C8.54629 11.4748 8.74329 11.3818 8.96054 11.3386C9.85529 11.1678 9.71945 9.79992 10.6695 9.61742C11.3233 9.485 11.2503 8.82233 11.5903 8.39217M6.24219 10.5344C6.32945 10.1795 6.70161 10.2132 6.9623 10.1264C8.58204 9.53025 7.64608 8.12443 9.24254 7.83308C10.4539 7.65583 9.98587 6.71861 10.5207 6.25" stroke="#272B35" stroke-width="1.25" stroke-linecap="round"/>
<path d="M1.67188 12.7795L7.22047 18.3357M2.36958 13.1634L2.93488 12.6332C3.28017 12.3092 3.64569 11.9389 4.11761 11.9051C4.55252 11.874 5.1419 12.1061 6.76043 12.6762C7.29754 12.8653 7.96239 14.5566 8.06195 15.6748C8.10998 16.2142 7.78673 16.6745 7.41144 17.065L6.95749 17.5373" stroke="#272B35" stroke-width="1.25" stroke-linecap="round" stroke-linejoin="round"/>
<path d="M12.7868 1.66797L18.3079 7.25164M13.1667 2.36854L12.6344 2.93198C12.3093 3.27613 11.9377 3.64033 11.9016 4.11272C11.8683 4.54806 12.0972 5.1394 12.6585 6.76297C12.8447 7.30147 14.5286 7.97518 15.6447 8.08094C16.1844 8.13208 16.6464 7.81029 17.0386 7.43608L17.5119 6.98435" stroke="#272B35" stroke-width="1.25" stroke-linecap="round" stroke-linejoin="round"/>
</svg>
