<svg width="20" height="20" viewBox="0 0 20 20" fill="none" xmlns="http://www.w3.org/2000/svg">
<path d="M18.3385 5H1.67188C1.67188 4.22343 1.67188 3.83515 1.79874 3.52886C1.9679 3.12048 2.29236 2.79603 2.70073 2.62687C3.00703 2.5 3.39531 2.5 4.17187 2.5H15.8385C16.6151 2.5 17.0034 2.5 17.3097 2.62687C17.718 2.79603 18.0425 3.12048 18.2117 3.52886C18.3385 3.83515 18.3385 4.22343 18.3385 5Z" stroke="#272B35" stroke-width="1.25" stroke-linecap="round" stroke-linejoin="round"/>
<path d="M18.3385 5V17.5M1.67188 5V17.5" stroke="#272B35" stroke-width="1.25" stroke-linecap="round" stroke-linejoin="round"/>
<path d="M13.3385 15.832V17.4987M6.67188 15.832V17.4987" stroke="#272B35" stroke-width="1.25" stroke-linecap="round" stroke-linejoin="round"/>
<path d="M6.25 11.6644L6.45212 10.856C6.75527 9.6433 6.90684 9.03705 7.35894 8.68405C7.81104 8.33105 8.436 8.33105 9.68592 8.33105H10.3141C11.564 8.33105 12.1889 8.33105 12.6411 8.68405C13.0932 9.03705 13.2447 9.6433 13.5479 10.856L13.75 11.6644" stroke="#272B35" stroke-width="1.25" stroke-linecap="round" stroke-linejoin="round"/>
<path d="M14.1667 11.6689H5.83333C5.3731 11.6689 5 12.042 5 12.5023V15.0023C5 15.4625 5.3731 15.8356 5.83333 15.8356H14.1667C14.6269 15.8356 15 15.4625 15 15.0023V12.5023C15 12.042 14.6269 11.6689 14.1667 11.6689Z" stroke="#272B35" stroke-width="1.25" stroke-linecap="round" stroke-linejoin="round"/>
<path d="M7.07812 13.7441V13.7525" stroke="#272B35" stroke-width="1.25" stroke-linecap="round" stroke-linejoin="round"/>
<path d="M12.9219 13.7441V13.7525" stroke="#272B35" stroke-width="1.25" stroke-linecap="round" stroke-linejoin="round"/>
</svg>
