<svg width="20" height="20" viewBox="0 0 20 20" fill="none" xmlns="http://www.w3.org/2000/svg">
<path d="M3.56833 18.3346V15.3757C3.56833 14.3113 3.28426 13.7652 2.72567 12.8441C2.05617 11.74 1.67188 10.4515 1.67188 9.07539C1.67188 4.98438 5.06816 1.66797 9.25771 1.66797C12.894 1.66797 15.9329 4.16644 16.6719 7.5013" stroke="#272B35" stroke-width="1.25" stroke-linecap="round" stroke-linejoin="round"/>
<path d="M12.5575 12.3699L15.8206 10.3438C15.8975 10.296 15.936 10.2722 15.9742 10.2535C16.0125 10.2349 16.0572 10.2185 16.1465 10.1858C16.6056 10.0175 17.1144 9.83596 17.5277 10.1856C17.746 10.3703 17.8485 10.6947 18.0537 11.3435C18.2155 11.8555 18.3953 12.3613 18.303 12.9045C18.2547 13.189 18.1283 13.4556 17.8754 13.989L16.6844 16.5007C16.2229 17.474 15.9921 17.9605 15.2247 18.2161C14.4574 18.4716 14.1185 18.2785 13.4406 17.8925C10.3687 16.1424 4.41978 11.049 6.13178 8.73862C6.77827 7.86619 8.43096 8.1112 12.5575 12.3699ZM12.5575 12.3699L11.6696 16.7315" stroke="#272B35" stroke-width="1.25" stroke-linecap="round" stroke-linejoin="round"/>
</svg>
