<svg width="20" height="20" viewBox="0 0 20 20" fill="none" xmlns="http://www.w3.org/2000/svg">
<path d="M14.5833 18.3356C16.4242 18.3356 17.9167 16.8432 17.9167 15.0023C17.9167 14.1135 17.5689 13.3061 17.002 12.7085C16.5797 12.2634 16.3686 12.0409 16.3093 11.8922C16.25 11.7435 16.25 11.5469 16.25 11.1535V3.33561C16.25 2.41514 15.5038 1.66895 14.5833 1.66895C13.6628 1.66895 12.9167 2.41514 12.9167 3.33561V11.1535C12.9167 11.5469 12.9167 11.7435 12.8573 11.8922C12.7981 12.0409 12.5869 12.2634 12.1647 12.7085C11.5977 13.3061 11.25 14.1135 11.25 15.0023C11.25 16.8432 12.7424 18.3356 14.5833 18.3356Z" stroke="#272B35" stroke-width="1.25" stroke-linecap="round" stroke-linejoin="round"/>
<path d="M7.53267 4.16797V7.21484M7.53267 7.21484V11.9545M7.53267 7.21484L9.23721 5.52214M7.53267 7.21484L5.82812 5.52214M7.53267 11.9545L7.53267 15.0013M7.53267 11.9545L5.82812 13.6471M7.53267 11.9545L9.23721 13.6471M3.44176 7.89193L5.14631 9.58464M5.14631 9.58464L3.44176 11.2773M5.14631 9.58464H9.57812M5.14631 9.58464H2.07812" stroke="#272B35" stroke-width="1.25" stroke-linecap="round" stroke-linejoin="round"/>
</svg>
