<svg width="20" height="20" viewBox="0 0 20 20" fill="none" xmlns="http://www.w3.org/2000/svg">
<path d="M7.97794 10.5244C6.69595 11.2408 5.82812 12.6192 5.82812 14.2018C5.82812 15.9418 6.87697 17.4347 8.37187 18.0728C8.95646 18.3223 9.24871 18.4471 9.62179 18.1978C9.99479 17.9486 9.99479 17.54 9.99479 16.7228V12.0836C9.02521 12.0836 8.21036 11.4213 7.97794 10.5244Z" stroke="#272B35" stroke-width="1.25" stroke-linejoin="round"/>
<path d="M7.92187 9.9987H3.28269C2.46552 9.9987 2.05692 9.9987 1.80768 9.6257C1.55843 9.25261 1.68318 8.96036 1.93269 8.37578C2.57077 6.88087 4.06369 5.83203 5.80363 5.83203C7.38632 5.83203 8.76462 6.69986 9.48104 7.98186C8.58421 8.21427 7.92187 9.02911 7.92187 9.9987Z" stroke="#272B35" stroke-width="1.25" stroke-linejoin="round"/>
<path d="M10 7.91894V3.27976C10 2.46259 10 2.05399 10.373 1.80475C10.7461 1.5555 11.0383 1.68025 11.6229 1.92976C13.1178 2.56784 14.1667 4.06076 14.1667 5.8007C14.1667 7.38339 13.2988 8.7617 12.0168 9.47811C11.7844 8.58128 10.9696 7.91894 10 7.91894Z" stroke="#272B35" stroke-width="1.25" stroke-linejoin="round"/>
<path d="M10.5234 12.0168C11.4203 11.7844 12.0826 10.9696 12.0826 10H16.7218C17.5389 10 17.9475 10 18.1968 10.373C18.446 10.7461 18.3213 11.0383 18.0718 11.6229C17.4337 13.1178 15.9408 14.1667 14.2009 14.1667C12.6182 14.1667 11.2399 13.2988 10.5234 12.0168Z" stroke="#272B35" stroke-width="1.25" stroke-linejoin="round"/>
<path d="M12.0885 10.0013C12.0885 11.1519 11.1558 12.0847 10.0052 12.0847C8.85463 12.0847 7.92188 11.1519 7.92188 10.0013C7.92188 8.85074 8.85463 7.91797 10.0052 7.91797C11.1558 7.91797 12.0885 8.85074 12.0885 10.0013Z" stroke="#272B35" stroke-width="1.25"/>
</svg>
