<svg width="20" height="20" viewBox="0 0 20 20" fill="none" xmlns="http://www.w3.org/2000/svg">
<path d="M11.25 9.16895C11.25 9.85928 10.6903 10.4189 10 10.4189C9.30967 10.4189 8.75 9.85928 8.75 9.16895C8.75 8.47861 9.30967 7.91895 10 7.91895C10.6903 7.91895 11.25 8.47861 11.25 9.16895Z" stroke="#272B35" stroke-width="1.25"/>
<path d="M17.5 8.75228C17.4902 8.59195 17.4757 8.43286 17.4563 8.27533C17.1831 6.05065 15.967 4.12335 14.2268 2.91895M5.77313 2.91895C4.03303 4.12335 2.81689 6.05065 2.5437 8.27533C2.52436 8.43286 2.50974 8.59195 2.5 8.75228" stroke="#272B35" stroke-width="1.25" stroke-linecap="round"/>
<path d="M10 7.91439V5.83105" stroke="#272B35" stroke-width="1.25" stroke-linecap="round"/>
<path d="M8.74479 9.58203L7.07812 10.832" stroke="#272B35" stroke-width="1.25" stroke-linecap="round"/>
<path d="M11.25 9.58105L12.9167 10.8311" stroke="#272B35" stroke-width="1.25" stroke-linecap="round"/>
<path d="M10 10.4189V18.3356" stroke="#272B35" stroke-width="1.25" stroke-linecap="round"/>
<path d="M15 18.3311H5" stroke="#272B35" stroke-width="1.25" stroke-linecap="round"/>
<path d="M8.39497 3.32637L8.52972 4.59084C8.57789 5.04217 8.60122 5.51638 9.05322 5.73907C9.24714 5.83464 9.49639 5.83464 9.9948 5.83464C10.4932 5.83464 10.7425 5.83464 10.9364 5.73907C11.3884 5.51638 11.4117 5.04217 11.4599 4.59084L11.5946 3.32636C11.6466 2.83895 11.799 2.19268 11.346 1.8515C11.1023 1.66797 10.7331 1.66797 9.9948 1.66797C9.25647 1.66797 8.8873 1.66797 8.64364 1.8515C8.19065 2.19268 8.34297 2.83895 8.39497 3.32637Z" stroke="#272B35" stroke-width="1.25" stroke-linecap="round"/>
<path d="M15.9094 10.7787L14.7306 10.2577C14.3098 10.0717 13.8815 9.85258 13.4568 10.1356C13.2745 10.2571 13.1481 10.4752 12.8954 10.9115C12.6427 11.3478 12.5164 11.5659 12.502 11.784C12.4683 12.2922 12.873 12.5522 13.2449 12.8224L14.2871 13.5794C14.6887 13.8712 15.1791 14.3312 15.7083 14.1072C15.993 13.9866 16.1802 13.6635 16.5546 13.0172C16.929 12.3709 17.1162 12.0477 17.0786 11.7417C17.0086 11.1728 16.3638 10.9796 15.9094 10.7787Z" stroke="#272B35" stroke-width="1.25" stroke-linecap="round"/>
<path d="M4.09579 10.7787L5.27461 10.2577C5.69537 10.0717 6.12366 9.85258 6.54839 10.1356C6.73067 10.2571 6.85703 10.4752 7.10975 10.9115C7.36247 11.3478 7.48883 11.5659 7.50325 11.784C7.53684 12.2922 7.13224 12.5522 6.76026 12.8224L5.71814 13.5794C5.31643 13.8712 4.82611 14.3312 4.29683 14.1072C4.01211 13.9866 3.82492 13.6635 3.45055 13.0172C3.07617 12.3709 2.88898 12.0477 2.92662 11.7417C2.99658 11.1728 3.6414 10.9796 4.09579 10.7787Z" stroke="#272B35" stroke-width="1.25" stroke-linecap="round"/>
</svg>
