<svg width="20" height="20" viewBox="0 0 20 20" fill="none" xmlns="http://www.w3.org/2000/svg">
<path d="M18.3385 13.3333C18.0832 12.8226 17.5612 12.5 16.9902 12.5H3.02023C2.44923 12.5 1.92723 12.8226 1.67188 13.3333" stroke="#272B35" stroke-width="1.25" stroke-linecap="round"/>
<path d="M2.5 18.3311H17.5" stroke="#272B35" stroke-width="1.25" stroke-linecap="round"/>
<path d="M4.17188 12.5V18.3333M7.92188 12.5V18.3333M12.0885 12.5V18.3333M15.8385 12.5V18.3333" stroke="#272B35" stroke-width="1.25" stroke-linecap="round"/>
<path d="M10.0052 5.83333L12.5052 2.5M10.0052 5.83333H5.42188M10.0052 5.83333H14.5885M10.0052 5.83333L7.50521 2.5" stroke="#272B35" stroke-width="1.25" stroke-linecap="round"/>
<path d="M5 6.66895C5 3.90752 7.23857 1.66895 10 1.66895C12.7614 1.66895 15 3.90752 15 6.66895V12.5023H5V6.66895Z" stroke="#272B35" stroke-width="1.25" stroke-linecap="round" stroke-linejoin="round"/>
</svg>
