<svg width="20" height="20" viewBox="0 0 20 20" fill="none" xmlns="http://www.w3.org/2000/svg">
<path d="M4.17188 5.0013C4.17188 3.42995 4.17188 2.64428 4.66003 2.15613C5.14818 1.66797 5.93386 1.66797 7.50521 1.66797H12.5052C14.0765 1.66797 14.8622 1.66797 15.3504 2.15613C15.8385 2.64428 15.8385 3.42995 15.8385 5.0013V16.668C15.8385 17.4536 15.8385 17.8465 15.5945 18.0906C15.3504 18.3346 14.9575 18.3346 14.1719 18.3346H5.83854C5.05287 18.3346 4.66003 18.3346 4.41595 18.0906C4.17188 17.8465 4.17188 17.4536 4.17188 16.668V5.0013Z" stroke="#272B35" stroke-width="1.25" stroke-linecap="round" stroke-linejoin="round"/>
<path d="M6.67188 5.83203H6.67786" stroke="#272B35" stroke-width="1.25" stroke-linecap="round" stroke-linejoin="round"/>
<path d="M6.67188 10.832H6.67786" stroke="#272B35" stroke-width="1.25" stroke-linecap="round" stroke-linejoin="round"/>
<path d="M4.17188 8.33203H15.8385" stroke="#272B35" stroke-width="1.25" stroke-linecap="round" stroke-linejoin="round"/>
</svg>
