<svg width="28" height="28" viewBox="0 0 28 28" fill="none" xmlns="http://www.w3.org/2000/svg">
<path d="M10.5 25.6667L10.5022 20.9972C10.5028 19.9115 10.503 19.3686 10.6804 18.9405C10.9174 18.3683 11.372 17.9138 11.9442 17.6772C12.3726 17.5 12.9155 17.5 14.0012 17.5C15.0872 17.5 15.6303 17.5 16.0588 17.6773C16.6312 17.9142 17.0858 18.3688 17.3227 18.9412C17.5 19.3697 17.5 19.9128 17.5 20.9988V25.6667" stroke="#272B35" stroke-width="1.75"/>
<path d="M8.26989 5.55584L7.10321 6.46648C5.33378 7.84762 4.44906 8.53819 3.97453 9.51189C3.5 10.4856 3.5 11.6104 3.5 13.86V16.2998C3.5 20.7152 3.5 22.9229 4.86683 24.2947C6.23367 25.6663 8.43355 25.6663 12.8333 25.6663H15.1667C19.5664 25.6663 21.7664 25.6663 23.1331 24.2947C24.5 22.9229 24.5 20.7152 24.5 16.2998V13.86C24.5 11.6104 24.5 10.4856 24.0255 9.51189C23.5509 8.53819 22.6662 7.84762 20.8968 6.46648L19.7301 5.55584C16.9775 3.40729 15.6011 2.33301 14 2.33301C12.3989 2.33301 11.0225 3.40729 8.26989 5.55584Z" stroke="#272B35" stroke-width="1.75" stroke-linejoin="round"/>
</svg>
