<svg width="29" height="28" viewBox="0 0 29 28" fill="none" xmlns="http://www.w3.org/2000/svg">
<path d="M14.3335 2.33301H7.3335C4.43783 2.33301 3.8335 2.93734 3.8335 5.83301V25.6663H17.8335V5.83301C17.8335 2.93734 17.2292 2.33301 14.3335 2.33301Z" stroke="#272B35" stroke-width="1.75" stroke-linejoin="round"/>
<path d="M21.3335 9.33301H17.8335V25.6663H24.8335V12.833C24.8335 9.93734 24.2292 9.33301 21.3335 9.33301Z" stroke="#272B35" stroke-width="1.75" stroke-linejoin="round"/>
<path d="M9.66943 7H12.0028M9.66943 10.5H12.0028M9.66943 14H12.0028" stroke="#272B35" stroke-width="1.75" stroke-linecap="round" stroke-linejoin="round"/>
<path d="M13.7528 25.667V21.0003C13.7528 19.9004 13.7528 19.3504 13.4111 19.0087C13.0693 18.667 12.5194 18.667 11.4194 18.667H10.2528C9.15282 18.667 8.60286 18.667 8.26114 19.0087C7.91943 19.3504 7.91943 19.9004 7.91943 21.0003V25.667" stroke="#272B35" stroke-width="1.75" stroke-linejoin="round"/>
</svg>
