<svg width="28" height="28" viewBox="0 0 28 28" fill="none" xmlns="http://www.w3.org/2000/svg">
<path d="M15.7544 15.7503C17.6495 16.5626 18.5972 16.9687 19.5526 16.8413C19.6604 16.8268 19.7675 16.8074 19.8736 16.7831C20.813 16.5673 21.5579 15.8546 23.0478 14.4292L23.2227 14.2619C24.3524 13.1322 24.9173 12.5673 25.0545 11.4143C25.1917 10.2613 24.8972 9.77954 24.3083 8.81597C23.7852 7.95988 23.0546 6.98391 22.0377 5.96705C21.0209 4.95017 20.0448 4.21963 19.1887 3.69642C18.2252 3.10754 17.7435 2.81309 16.5904 2.95026C15.4374 3.08743 14.8725 3.65231 13.7428 4.78206L13.5755 4.95683C12.1502 6.44683 11.4375 7.19181 11.2217 8.13131C11.1974 8.23723 11.1781 8.34421 11.1637 8.45193C11.0362 9.40742 11.4424 10.3551 12.2546 12.2503" stroke="#272B35" stroke-width="1.75" stroke-linecap="round" stroke-linejoin="round"/>
<path d="M12.2552 12.249L2.92188 21.5832V25.0832H6.42187V22.7498H8.75521V20.4165H11.0885L15.7552 15.7498" stroke="#272B35" stroke-width="1.75" stroke-linecap="round" stroke-linejoin="round"/>
<path d="M19.8307 8.16699L18.6641 9.33366" stroke="#272B35" stroke-width="1.75" stroke-linecap="round" stroke-linejoin="round"/>
</svg>
